<?xml version="1.0" standalone="no"?>
<!DOCTYPE svg PUBLIC "-//W3C//DTD SVG 20010904//EN"
 "http://www.w3.org/TR/2001/REC-SVG-20010904/DTD/svg10.dtd">
<svg version="1.0" xmlns="http://www.w3.org/2000/svg"
 width="700.000000pt" height="700.000000pt" viewBox="0 0 700.000000 700.000000"
 preserveAspectRatio="xMidYMid meet">
<metadata>
Created by potrace 1.14, written by Peter Selinger 2001-2017
</metadata>
<g transform="translate(0.000000,700.000000) scale(0.100000,-0.100000)"
fill="#FFFFFF" stroke="none">
<path d="M3347 6864 c-1 -1 -47 -5 -102 -9 -102 -7 -124 -9 -185 -18 -19 -3
-71 -11 -115 -17 -214 -31 -582 -139 -775 -227 -463 -212 -757 -416 -1091
-758 -459 -469 -771 -1078 -893 -1740 -8 -44 -17 -107 -21 -140 -4 -33 -8 -71
-11 -85 -23 -141 -23 -561 1 -750 11 -82 32 -220 40 -260 3 -14 7 -36 10 -50
2 -14 18 -78 35 -144 118 -459 319 -860 634 -1264 l80 -104 36 39 c19 21 123
143 230 272 245 292 227 271 253 301 12 14 56 66 97 115 41 50 78 92 82 93 15
7 8 39 -18 73 -61 82 -187 304 -240 424 -40 91 -108 302 -121 375 -2 14 -8 41
-13 60 -4 19 -12 58 -16 85 -4 28 -9 57 -10 65 -22 114 -21 498 1 610 2 13 7
42 11 65 36 251 143 544 287 789 181 309 441 576 753 774 254 161 615 291 904
327 253 31 501 24 740 -21 325 -61 609 -183 905 -388 169 -117 398 -345 523
-521 211 -297 348 -632 396 -970 24 -170 27 -210 27 -355 1 -180 -10 -282 -47
-462 -43 -206 -129 -445 -217 -603 -52 -93 -180 -286 -188 -283 -4 2 -112 129
-241 283 -129 154 -283 339 -343 410 -59 72 -111 132 -114 135 -4 3 -38 43
-76 90 -39 47 -80 96 -91 110 -12 14 -95 113 -184 220 -89 107 -172 206 -184
220 -18 21 -61 74 -188 225 -320 384 -401 480 -407 482 -3 1 -26 -23 -51 -53
-25 -31 -52 -63 -60 -72 -8 -10 -33 -40 -55 -67 -22 -28 -50 -61 -61 -75 -28
-32 -159 -191 -514 -620 -157 -190 -292 -354 -302 -365 -17 -20 -351 -424
-413 -500 -18 -22 -91 -110 -161 -195 -71 -85 -146 -176 -168 -202 l-38 -48
74 -92 c81 -100 182 -205 274 -284 31 -27 62 -53 68 -59 74 -66 232 -169 361
-235 l113 -58 -22 -23 c-12 -13 -55 -64 -96 -114 -85 -102 -111 -133 -125
-149 -6 -6 -30 -36 -55 -66 -25 -30 -47 -57 -50 -60 -15 -13 -360 -430 -360
-434 0 -8 225 -120 350 -174 258 -111 567 -196 830 -227 25 -3 61 -7 80 -10
79 -10 264 -19 395 -19 250 1 393 15 680 70 342 64 791 247 1110 451 133 86
313 224 410 314 28 26 73 65 100 87 169 134 440 474 608 762 52 90 177 340
177 355 0 4 6 21 14 38 62 142 168 498 191 647 3 19 8 46 10 60 12 56 18 97
30 197 30 254 20 815 -15 883 -5 9 -11 34 -14 55 -6 36 -50 247 -60 285 -130
491 -358 936 -672 1313 -147 176 -321 347 -480 472 -20 17 -42 35 -48 40 -22
21 -214 153 -303 208 -195 120 -444 237 -675 316 -105 36 -353 102 -433 116
-16 3 -55 9 -85 14 -84 15 -150 24 -285 37 -64 6 -422 13 -428 8z m228 -4431
c39 -47 75 -90 80 -97 6 -6 55 -65 110 -131 216 -261 291 -351 311 -375 88
-102 344 -412 344 -415 0 -10 -221 -101 -270 -110 -8 -2 -42 -10 -75 -19 -33
-10 -73 -19 -90 -22 -16 -2 -50 -9 -75 -14 -114 -23 -257 -34 -420 -33 -105 0
-299 11 -310 18 -3 2 -23 6 -45 9 -88 14 -114 19 -205 42 -141 35 -350 109
-350 124 0 7 106 138 193 240 12 14 65 77 117 140 52 63 97 117 100 120 3 3
37 43 75 90 38 47 76 92 85 101 8 9 89 107 180 217 91 111 167 201 170 201 3
0 37 -39 75 -86z"/>
</g>
</svg>
